Coordinates
version=1
nRows=61
nColumns=4
inDegrees=yes

Units are S.I. units (second, meters, Newtons, ...)
Angles are in degrees.

endheader
time	joint_1	joint_2	transX
      0.00000000	     89.99979668	     45.00079257	      0.00000000
      0.01666667	     88.13000569	     45.47105131	      0.00000000
      0.03333333	     86.27911696	     45.67210531	      0.00000000
      0.05000000	     84.47682381	     45.50191029	      0.00000000
      0.06666667	     82.75770799	     44.83724177	      0.00000000
      0.08333333	     81.23118007	     43.35078778	      0.00000000
      0.10000000	     80.02096337	     40.65927907	      0.00000000
      0.11666667	     79.55087860	     35.53805660	      0.00000000
      0.13333333	     83.28441974	     18.28288478	      0.00000000
      0.15000000	    103.28101749	    -45.07963684	      0.00000000
      0.16666667	    104.01299312	    -55.15591444	      0.00000000
      0.18333333	    103.63266165	    -62.08943803	      0.00000000
      0.20000000	    102.66769505	    -67.24210670	      0.00000000
      0.21666667	    101.33723374	    -71.15397895	      0.00000000
      0.23333333	     99.76121459	    -74.11946950	      0.00000000
      0.25000000	     98.01317576	    -76.32412152	      0.00000000
      0.26666667	     96.14074859	    -77.90012350	      0.00000000
      0.28333333	     94.17629153	    -78.94740485	      0.00000000
      0.30000000	     92.29483236	    -81.36722466	      0.00000000
      0.31666667	     91.54437569	    -80.84337734	      0.00000000
      0.33333333	     90.79435217	    -80.30306127	      0.00000000
      0.35000000	     90.04486077	    -79.74726294	      0.00000000
      0.36666667	     89.29602526	    -79.17697942	      0.00000000
      0.38333333	     88.54797409	    -78.59316202	      0.00000000
      0.40000000	     87.80084065	    -77.99672085	      0.00000000
      0.41666667	     87.05476271	    -77.38852825	      0.00000000
      0.43333333	     86.30988260	    -76.76942241	      0.00000000
      0.45000000	     85.56634728	    -76.14021066	      0.00000000
      0.46666667	     84.82430764	    -75.50167164	      0.00000000
      0.48333333	     84.08391848	    -74.85455792	      0.00000000
      0.50000000	     83.34533853	    -74.19959823	      0.00000000
      0.51666667	     84.08416496	    -74.85451680	      0.00000000
      0.53333333	     84.82455428	    -75.50163213	      0.00000000
      0.55000000	     85.56658876	    -76.14017296	      0.00000000
      0.56666667	     86.31011445	    -76.76938669	      0.00000000
      0.58333333	     87.05498121	    -77.38849456	      0.00000000
      0.60000000	     87.80104282	    -77.99668918	      0.00000000
      0.61666667	     88.54815773	    -78.59313231	      0.00000000
      0.63333333	     89.29618893	    -79.17695160	      0.00000000
      0.65000000	     90.04500376	    -79.74723692	      0.00000000
      0.66666667	     90.79447447	    -80.30303698	      0.00000000
      0.68333333	     91.54447793	    -80.84335470	      0.00000000
      0.70000000	     92.29489521	    -81.36714218	      0.00000000
      0.71666667	     93.04561193	    -81.87329561	      0.00000000
      0.73333333	     93.79651762	    -82.36064894	      0.00000000
      0.75000000	     94.54750503	    -82.82796683	      0.00000000
      0.76666667	     95.29846999	    -83.27393733	      0.00000000
      0.78333333	     96.04931036	    -83.69716313	      0.00000000
      0.80000000	     96.79992465	    -84.09615173	      0.00000000
      0.81666667	     96.13841193	    -83.74583495	      0.00000000
      0.83333333	     95.47672355	    -83.37654290	      0.00000000
      0.85000000	     94.81491786	    -82.98931866	      0.00000000
      0.86666667	     94.15306459	    -82.58513714	      0.00000000
      0.88333333	     93.49123445	    -82.16491971	      0.00000000
      0.90000000	     92.82949983	    -81.72953915	      0.00000000
      0.91666667	     92.16793477	    -81.27982369	      0.00000000
      0.93333333	     91.50661586	    -80.81656133	      0.00000000
      0.95000000	     90.84562213	    -80.34050319	      0.00000000
      0.96666667	     90.18503502	    -79.85236655	      0.00000000
      0.98333333	     89.52493895	    -79.35283815	      0.00000000
      1.00000000	     92.29498001	    -81.36678684	      0.00000000
